<!-- Font Awesome Free 6.6.0 subset (Icons: CC BY 4.0, https://fontawesome.com/license/free) -->
<!-- Auto-generated by icons-build.mjs - DO NOT EDIT. Edit icons-manifest.txt and re-run "node icons-build.mjs". -->
<svg xmlns="http://www.w3.org/2000/svg" style="display:none">
  <symbol id="fa-bars" viewBox="0 0 448 512"><path d="M0 96C0 78.3 14.3 64 32 64l384 0c17.7 0 32 14.3 32 32s-14.3 32-32 32L32 128C14.3 128 0 113.7 0 96zM0 256c0-17.7 14.3-32 32-32l384 0c17.7 0 32 14.3 32 32s-14.3 32-32 32L32 288c-17.7 0-32-14.3-32-32zM448 416c0 17.7-14.3 32-32 32L32 448c-17.7 0-32-14.3-32-32s14.3-32 32-32l384 0c17.7 0 32 14.3 32 32z"/></symbol>
  <symbol id="fa-chart-area" viewBox="0 0 512 512"><path d="M64 64c0-17.7-14.3-32-32-32S0 46.3 0 64L0 400c0 44.2 35.8 80 80 80l400 0c17.7 0 32-14.3 32-32s-14.3-32-32-32L80 416c-8.8 0-16-7.2-16-16L64 64zm96 288l288 0c17.7 0 32-14.3 32-32l0-68.2c0-7.6-2.7-15-7.7-20.8l-65.8-76.8c-12.1-14.2-33.7-15-46.9-1.8l-21 21c-10 10-26.4 9.2-35.4-1.6l-39.2-47c-12.6-15.1-35.7-15.4-48.7-.6L135.9 215c-5.1 5.8-7.9 13.3-7.9 21.1l0 84c0 17.7 14.3 32 32 32z"/></symbol>
  <symbol id="fa-chart-pie" viewBox="0 0 576 512"><path d="M304 240l0-223.4c0-9 7-16.6 16-16.6C443.7 0 544 100.3 544 224c0 9-7.6 16-16.6 16L304 240zM32 272C32 150.7 122.1 50.3 239 34.3c9.2-1.3 17 6.1 17 15.4L256 288 412.5 444.5c6.7 6.7 6.2 17.7-1.5 23.1C371.8 495.6 323.8 512 272 512C139.5 512 32 404.6 32 272zm526.4 16c9.3 0 16.6 7.8 15.4 17c-7.7 55.9-34.6 105.6-73.9 142.3c-6 5.6-15.4 5.2-21.2-.7L320 288l238.4 0z"/></symbol>
  <symbol id="fa-check" viewBox="0 0 448 512"><path d="M438.6 105.4c12.5 12.5 12.5 32.8 0 45.3l-256 256c-12.5 12.5-32.8 12.5-45.3 0l-128-128c-12.5-12.5-12.5-32.8 0-45.3s32.8-12.5 45.3 0L160 338.7 393.4 105.4c12.5-12.5 32.8-12.5 45.3 0z"/></symbol>
  <symbol id="fa-circle-plus" viewBox="0 0 512 512"><path d="M256 512A256 256 0 1 0 256 0a256 256 0 1 0 0 512zM232 344l0-64-64 0c-13.3 0-24-10.7-24-24s10.7-24 24-24l64 0 0-64c0-13.3 10.7-24 24-24s24 10.7 24 24l0 64 64 0c13.3 0 24 10.7 24 24s-10.7 24-24 24l-64 0 0 64c0 13.3-10.7 24-24 24s-24-10.7-24-24z"/></symbol>
  <symbol id="fa-cog" viewBox="0 0 512 512"><path d="M495.9 166.6c3.2 8.7 .5 18.4-6.4 24.6l-43.3 39.4c1.1 8.3 1.7 16.8 1.7 25.4s-.6 17.1-1.7 25.4l43.3 39.4c6.9 6.2 9.6 15.9 6.4 24.6c-4.4 11.9-9.7 23.3-15.8 34.3l-4.7 8.1c-6.6 11-14 21.4-22.1 31.2c-5.9 7.2-15.7 9.6-24.5 6.8l-55.7-17.7c-13.4 10.3-28.2 18.9-44 25.4l-12.5 57.1c-2 9.1-9 16.3-18.2 17.8c-13.8 2.3-28 3.5-42.5 3.5s-28.7-1.2-42.5-3.5c-9.2-1.5-16.2-8.7-18.2-17.8l-12.5-57.1c-15.8-6.5-30.6-15.1-44-25.4L83.1 425.9c-8.8 2.8-18.6 .3-24.5-6.8c-8.1-9.8-15.5-20.2-22.1-31.2l-4.7-8.1c-6.1-11-11.4-22.4-15.8-34.3c-3.2-8.7-.5-18.4 6.4-24.6l43.3-39.4C64.6 273.1 64 264.6 64 256s.6-17.1 1.7-25.4L22.4 191.2c-6.9-6.2-9.6-15.9-6.4-24.6c4.4-11.9 9.7-23.3 15.8-34.3l4.7-8.1c6.6-11 14-21.4 22.1-31.2c5.9-7.2 15.7-9.6 24.5-6.8l55.7 17.7c13.4-10.3 28.2-18.9 44-25.4l12.5-57.1c2-9.1 9-16.3 18.2-17.8C227.3 1.2 241.5 0 256 0s28.7 1.2 42.5 3.5c9.2 1.5 16.2 8.7 18.2 17.8l12.5 57.1c15.8 6.5 30.6 15.1 44 25.4l55.7-17.7c8.8-2.8 18.6-.3 24.5 6.8c8.1 9.8 15.5 20.2 22.1 31.2l4.7 8.1c6.1 11 11.4 22.4 15.8 34.3zM256 336a80 80 0 1 0 0-160 80 80 0 1 0 0 160z"/></symbol>
  <symbol id="fa-columns" viewBox="0 0 512 512"><path d="M0 96C0 60.7 28.7 32 64 32l384 0c35.3 0 64 28.7 64 64l0 320c0 35.3-28.7 64-64 64L64 480c-35.3 0-64-28.7-64-64L0 96zm64 64l0 256 160 0 0-256L64 160zm384 0l-160 0 0 256 160 0 0-256z"/></symbol>
  <symbol id="fa-copy" viewBox="0 0 448 512"><path d="M208 0L332.1 0c12.7 0 24.9 5.1 33.9 14.1l67.9 67.9c9 9 14.1 21.2 14.1 33.9L448 336c0 26.5-21.5 48-48 48l-192 0c-26.5 0-48-21.5-48-48l0-288c0-26.5 21.5-48 48-48zM48 128l80 0 0 64-64 0 0 256 192 0 0-32 64 0 0 48c0 26.5-21.5 48-48 48L48 512c-26.5 0-48-21.5-48-48L0 176c0-26.5 21.5-48 48-48z"/></symbol>
  <symbol id="fa-dice" viewBox="0 0 640 512"><path d="M274.9 34.3c-28.1-28.1-73.7-28.1-101.8 0L34.3 173.1c-28.1 28.1-28.1 73.7 0 101.8L173.1 413.7c28.1 28.1 73.7 28.1 101.8 0L413.7 274.9c28.1-28.1 28.1-73.7 0-101.8L274.9 34.3zM200 224a24 24 0 1 1 48 0 24 24 0 1 1 -48 0zM96 200a24 24 0 1 1 0 48 24 24 0 1 1 0-48zM224 376a24 24 0 1 1 0-48 24 24 0 1 1 0 48zM352 200a24 24 0 1 1 0 48 24 24 0 1 1 0-48zM224 120a24 24 0 1 1 0-48 24 24 0 1 1 0 48zm96 328c0 35.3 28.7 64 64 64l192 0c35.3 0 64-28.7 64-64l0-192c0-35.3-28.7-64-64-64l-114.3 0c11.6 36 3.1 77-25.4 105.5L320 413.8l0 34.2zM480 328a24 24 0 1 1 0 48 24 24 0 1 1 0-48z"/></symbol>
  <symbol id="fa-display" viewBox="0 0 576 512"><path d="M64 0C28.7 0 0 28.7 0 64L0 352c0 35.3 28.7 64 64 64l176 0-10.7 32L160 448c-17.7 0-32 14.3-32 32s14.3 32 32 32l256 0c17.7 0 32-14.3 32-32s-14.3-32-32-32l-69.3 0L336 416l176 0c35.3 0 64-28.7 64-64l0-288c0-35.3-28.7-64-64-64L64 0zM512 64l0 288L64 352 64 64l448 0z"/></symbol>
  <symbol id="fa-envelope" viewBox="0 0 512 512"><path d="M48 64C21.5 64 0 85.5 0 112c0 15.1 7.1 29.3 19.2 38.4L236.8 313.6c11.4 8.5 27 8.5 38.4 0L492.8 150.4c12.1-9.1 19.2-23.3 19.2-38.4c0-26.5-21.5-48-48-48L48 64zM0 176L0 384c0 35.3 28.7 64 64 64l384 0c35.3 0 64-28.7 64-64l0-208L294.4 339.2c-22.8 17.1-54 17.1-76.8 0L0 176z"/></symbol>
  <symbol id="fa-eraser" viewBox="0 0 576 512"><path d="M290.7 57.4L57.4 290.7c-25 25-25 65.5 0 90.5l80 80c12 12 28.3 18.7 45.3 18.7L288 480l9.4 0L512 480c17.7 0 32-14.3 32-32s-14.3-32-32-32l-124.1 0L518.6 285.3c25-25 25-65.5 0-90.5L381.3 57.4c-25-25-65.5-25-90.5 0zM297.4 416l-9.4 0-105.4 0-80-80L227.3 211.3 364.7 348.7 297.4 416z"/></symbol>
  <symbol id="fa-external-link" viewBox="0 0 512 512"><path d="M320 0c-17.7 0-32 14.3-32 32s14.3 32 32 32l82.7 0L201.4 265.4c-12.5 12.5-12.5 32.8 0 45.3s32.8 12.5 45.3 0L448 109.3l0 82.7c0 17.7 14.3 32 32 32s32-14.3 32-32l0-160c0-17.7-14.3-32-32-32L320 0zM80 32C35.8 32 0 67.8 0 112L0 432c0 44.2 35.8 80 80 80l320 0c44.2 0 80-35.8 80-80l0-112c0-17.7-14.3-32-32-32s-32 14.3-32 32l0 112c0 8.8-7.2 16-16 16L80 448c-8.8 0-16-7.2-16-16l0-320c0-8.8 7.2-16 16-16l112 0c17.7 0 32-14.3 32-32s-14.3-32-32-32L80 32z"/></symbol>
  <symbol id="fa-exclamation-triangle" viewBox="0 0 512 512"><path d="M256 32c14.2 0 27.3 7.5 34.5 19.8l216 368c7.3 12.4 7.3 27.7 .2 40.1S486.3 480 472 480L40 480c-14.3 0-27.6-7.7-34.7-20.1s-7-27.8 .2-40.1l216-368C228.7 39.5 241.8 32 256 32zm0 128c-13.3 0-24 10.7-24 24l0 112c0 13.3 10.7 24 24 24s24-10.7 24-24l0-112c0-13.3-10.7-24-24-24zm32 224a32 32 0 1 0 -64 0 32 32 0 1 0 64 0z"/></symbol>
  <symbol id="fa-eye" viewBox="0 0 576 512"><path d="M288 32c-80.8 0-145.5 36.8-192.6 80.6C48.6 156 17.3 208 2.5 243.7c-3.3 7.9-3.3 16.7 0 24.6C17.3 304 48.6 356 95.4 399.4C142.5 443.2 207.2 480 288 480s145.5-36.8 192.6-80.6c46.8-43.5 78.1-95.4 93-131.1c3.3-7.9 3.3-16.7 0-24.6c-14.9-35.7-46.2-87.7-93-131.1C433.5 68.8 368.8 32 288 32zM144 256a144 144 0 1 1 288 0 144 144 0 1 1 -288 0zm144-64c0 35.3-28.7 64-64 64c-7.1 0-13.9-1.2-20.3-3.3c-5.5-1.8-11.9 1.6-11.7 7.4c.3 6.9 1.3 13.8 3.2 20.7c13.7 51.2 66.4 81.6 117.6 67.9s81.6-66.4 67.9-117.6c-11.1-41.5-47.8-69.4-88.6-71.1c-5.8-.2-9.2 6.1-7.4 11.7c2.1 6.4 3.3 13.2 3.3 20.3z"/></symbol>
  <symbol id="fa-graduation-cap" viewBox="0 0 640 512"><path d="M320 32c-8.1 0-16.1 1.4-23.7 4.1L15.8 137.4C6.3 140.9 0 149.9 0 160s6.3 19.1 15.8 22.6l57.9 20.9C57.3 229.3 48 259.8 48 291.9l0 28.1c0 28.4-10.8 57.7-22.3 80.8c-6.5 13-13.9 25.8-22.5 37.6C0 442.7-.9 448.3 .9 453.4s6 8.9 11.2 10.2l64 16c4.2 1.1 8.7 .3 12.4-2s6.3-6.1 7.1-10.4c8.6-42.8 4.3-81.2-2.1-108.7C90.3 344.3 86 329.8 80 316.5l0-24.6c0-30.2 10.2-58.7 27.9-81.5c12.9-15.5 29.6-28 49.2-35.7l157-61.7c8.2-3.2 17.5 .8 20.7 9s-.8 17.5-9 20.7l-157 61.7c-12.4 4.9-23.3 12.4-32.2 21.6l159.6 57.6c7.6 2.7 15.6 4.1 23.7 4.1s16.1-1.4 23.7-4.1L624.2 182.6c9.5-3.4 15.8-12.5 15.8-22.6s-6.3-19.1-15.8-22.6L343.7 36.1C336.1 33.4 328.1 32 320 32zM128 408c0 35.3 86 72 192 72s192-36.7 192-72L496.7 262.6 354.5 314c-11.1 4-22.8 6-34.5 6s-23.5-2-34.5-6L143.3 262.6 128 408z"/></symbol>
  <symbol id="fa-hashtag" viewBox="0 0 448 512"><path d="M181.3 32.4c17.4 2.9 29.2 19.4 26.3 36.8L197.8 128l95.1 0 11.5-69.3c2.9-17.4 19.4-29.2 36.8-26.3s29.2 19.4 26.3 36.8L357.8 128l58.2 0c17.7 0 32 14.3 32 32s-14.3 32-32 32l-68.9 0L325.8 320l58.2 0c17.7 0 32 14.3 32 32s-14.3 32-32 32l-68.9 0-11.5 69.3c-2.9 17.4-19.4 29.2-36.8 26.3s-29.2-19.4-26.3-36.8l9.8-58.7-95.1 0-11.5 69.3c-2.9 17.4-19.4 29.2-36.8 26.3s-29.2-19.4-26.3-36.8L90.2 384 32 384c-17.7 0-32-14.3-32-32s14.3-32 32-32l68.9 0 21.3-128L64 192c-17.7 0-32-14.3-32-32s14.3-32 32-32l68.9 0 11.5-69.3c2.9-17.4 19.4-29.2 36.8-26.3zM187.1 192L165.8 320l95.1 0 21.3-128-95.1 0z"/></symbol>
  <symbol id="fa-key" viewBox="0 0 512 512"><path d="M336 352c97.2 0 176-78.8 176-176S433.2 0 336 0S160 78.8 160 176c0 18.7 2.9 36.8 8.3 53.7L7 391c-4.5 4.5-7 10.6-7 17l0 80c0 13.3 10.7 24 24 24l80 0c13.3 0 24-10.7 24-24l0-40 40 0c13.3 0 24-10.7 24-24l0-40 40 0c6.4 0 12.5-2.5 17-7l33.3-33.3c16.9 5.4 35 8.3 53.7 8.3zM376 96a40 40 0 1 1 0 80 40 40 0 1 1 0-80z"/></symbol>
  <symbol id="fa-list" viewBox="0 0 512 512"><path d="M40 48C26.7 48 16 58.7 16 72l0 48c0 13.3 10.7 24 24 24l48 0c13.3 0 24-10.7 24-24l0-48c0-13.3-10.7-24-24-24L40 48zM192 64c-17.7 0-32 14.3-32 32s14.3 32 32 32l288 0c17.7 0 32-14.3 32-32s-14.3-32-32-32L192 64zm0 160c-17.7 0-32 14.3-32 32s14.3 32 32 32l288 0c17.7 0 32-14.3 32-32s-14.3-32-32-32l-288 0zm0 160c-17.7 0-32 14.3-32 32s14.3 32 32 32l288 0c17.7 0 32-14.3 32-32s-14.3-32-32-32l-288 0zM16 232l0 48c0 13.3 10.7 24 24 24l48 0c13.3 0 24-10.7 24-24l0-48c0-13.3-10.7-24-24-24l-48 0c-13.3 0-24 10.7-24 24zM40 368c-13.3 0-24 10.7-24 24l0 48c0 13.3 10.7 24 24 24l48 0c13.3 0 24-10.7 24-24l0-48c0-13.3-10.7-24-24-24l-48 0z"/></symbol>
  <symbol id="fa-moon" viewBox="0 0 384 512"><path d="M223.5 32C100 32 0 132.3 0 256S100 480 223.5 480c60.6 0 115.5-24.2 155.8-63.4c5-4.9 6.3-12.5 3.1-18.7s-10.1-9.7-17-8.5c-9.8 1.7-19.8 2.6-30.1 2.6c-96.9 0-175.5-78.8-175.5-176c0-65.8 36-123.1 89.3-153.3c6.1-3.5 9.2-10.5 7.7-17.3s-7.3-11.9-14.3-12.5c-6.3-.5-12.6-.8-19-.8z"/></symbol>
  <symbol id="fa-power-off" viewBox="0 0 512 512"><path d="M288 32c0-17.7-14.3-32-32-32s-32 14.3-32 32l0 224c0 17.7 14.3 32 32 32s32-14.3 32-32l0-224zM143.5 120.6c13.6-11.3 15.4-31.5 4.1-45.1s-31.5-15.4-45.1-4.1C49.7 115.4 16 181.8 16 256c0 132.5 107.5 240 240 240s240-107.5 240-240c0-74.2-33.8-140.6-86.6-184.6c-13.6-11.3-33.8-9.4-45.1 4.1s-9.4 33.8 4.1 45.1c38.9 32.3 63.5 81 63.5 135.4c0 97.2-78.8 176-176 176s-176-78.8-176-176c0-54.4 24.7-103.1 63.5-135.4z"/></symbol>
  <symbol id="fa-pen-to-square" viewBox="0 0 512 512"><path d="M471.6 21.7c-21.9-21.9-57.3-21.9-79.2 0L362.3 51.7l97.9 97.9 30.1-30.1c21.9-21.9 21.9-57.3 0-79.2L471.6 21.7zm-299.2 220c-6.1 6.1-10.8 13.6-13.5 21.9l-29.6 88.8c-2.9 8.6-.6 18.1 5.8 24.6s15.9 8.7 24.6 5.8l88.8-29.6c8.2-2.7 15.7-7.4 21.9-13.5L437.7 172.3 339.7 74.3 172.4 241.7zM96 64C43 64 0 107 0 160L0 416c0 53 43 96 96 96l256 0c53 0 96-43 96-96l0-96c0-17.7-14.3-32-32-32s-32 14.3-32 32l0 96c0 17.7-14.3 32-32 32L96 448c-17.7 0-32-14.3-32-32l0-256c0-17.7 14.3-32 32-32l96 0c17.7 0 32-14.3 32-32s-14.3-32-32-32L96 64z"/></symbol>
  <symbol id="fa-redo-alt" viewBox="0 0 512 512"><path d="M463.5 224l8.5 0c13.3 0 24-10.7 24-24l0-128c0-9.7-5.8-18.5-14.8-22.2s-19.3-1.7-26.2 5.2L413.4 96.6c-87.6-86.5-228.7-86.2-315.8 1c-87.5 87.5-87.5 229.3 0 316.8s229.3 87.5 316.8 0c12.5-12.5 12.5-32.8 0-45.3s-32.8-12.5-45.3 0c-62.5 62.5-163.8 62.5-226.3 0s-62.5-163.8 0-226.3c62.2-62.2 162.7-62.5 225.3-1L327 183c-6.9 6.9-8.9 17.2-5.2 26.2s12.5 14.8 22.2 14.8l119.5 0z"/></symbol>
  <symbol id="fa-save" viewBox="0 0 448 512"><path d="M64 32C28.7 32 0 60.7 0 96L0 416c0 35.3 28.7 64 64 64l320 0c35.3 0 64-28.7 64-64l0-242.7c0-17-6.7-33.3-18.7-45.3L352 50.7C340 38.7 323.7 32 306.7 32L64 32zm0 96c0-17.7 14.3-32 32-32l192 0c17.7 0 32 14.3 32 32l0 64c0 17.7-14.3 32-32 32L96 224c-17.7 0-32-14.3-32-32l0-64zM224 288a64 64 0 1 1 0 128 64 64 0 1 1 0-128z"/></symbol>
  <symbol id="fa-search" viewBox="0 0 512 512"><path d="M416 208c0 45.9-14.9 88.3-40 122.7L502.6 457.4c12.5 12.5 12.5 32.8 0 45.3s-32.8 12.5-45.3 0L330.7 376c-34.4 25.2-76.8 40-122.7 40C93.1 416 0 322.9 0 208S93.1 0 208 0S416 93.1 416 208zM208 352a144 144 0 1 0 0-288 144 144 0 1 0 0 288z"/></symbol>
  <symbol id="fa-server" viewBox="0 0 512 512"><path d="M64 32C28.7 32 0 60.7 0 96l0 64c0 35.3 28.7 64 64 64l384 0c35.3 0 64-28.7 64-64l0-64c0-35.3-28.7-64-64-64L64 32zm280 72a24 24 0 1 1 0 48 24 24 0 1 1 0-48zm48 24a24 24 0 1 1 48 0 24 24 0 1 1 -48 0zM64 288c-35.3 0-64 28.7-64 64l0 64c0 35.3 28.7 64 64 64l384 0c35.3 0 64-28.7 64-64l0-64c0-35.3-28.7-64-64-64L64 288zm280 72a24 24 0 1 1 0 48 24 24 0 1 1 0-48zm56 24a24 24 0 1 1 48 0 24 24 0 1 1 -48 0z"/></symbol>
  <symbol id="fa-sync-alt" viewBox="0 0 512 512"><path d="M105.1 202.6c7.7-21.8 20.2-42.3 37.8-59.8c62.5-62.5 163.8-62.5 226.3 0L386.3 160 352 160c-17.7 0-32 14.3-32 32s14.3 32 32 32l111.5 0c0 0 0 0 0 0l.4 0c17.7 0 32-14.3 32-32l0-112c0-17.7-14.3-32-32-32s-32 14.3-32 32l0 35.2L414.4 97.6c-87.5-87.5-229.3-87.5-316.8 0C73.2 122 55.6 150.7 44.8 181.4c-5.9 16.7 2.9 34.9 19.5 40.8s34.9-2.9 40.8-19.5zM39 289.3c-5 1.5-9.8 4.2-13.7 8.2c-4 4-6.7 8.8-8.1 14c-.3 1.2-.6 2.5-.8 3.8c-.3 1.7-.4 3.4-.4 5.1L16 432c0 17.7 14.3 32 32 32s32-14.3 32-32l0-35.1 17.6 17.5c0 0 0 0 0 0c87.5 87.4 229.3 87.4 316.7 0c24.4-24.4 42.1-53.1 52.9-83.8c5.9-16.7-2.9-34.9-19.5-40.8s-34.9 2.9-40.8 19.5c-7.7 21.8-20.2 42.3-37.8 59.8c-62.5 62.5-163.8 62.5-226.3 0l-.1-.1L125.6 352l34.4 0c17.7 0 32-14.3 32-32s-14.3-32-32-32L48.4 288c-1.6 0-3.2 .1-4.8 .3s-3.1 .5-4.6 1z"/></symbol>
  <symbol id="fa-sun" viewBox="0 0 512 512"><path d="M361.5 1.2c5 2.1 8.6 6.6 9.6 11.9L391 121l107.9 19.8c5.3 1 9.8 4.6 11.9 9.6s1.5 10.7-1.6 15.2L446.9 256l62.3 90.3c3.1 4.5 3.7 10.2 1.6 15.2s-6.6 8.6-11.9 9.6L391 391 371.1 498.9c-1 5.3-4.6 9.8-9.6 11.9s-10.7 1.5-15.2-1.6L256 446.9l-90.3 62.3c-4.5 3.1-10.2 3.7-15.2 1.6s-8.6-6.6-9.6-11.9L121 391 13.1 371.1c-5.3-1-9.8-4.6-11.9-9.6s-1.5-10.7 1.6-15.2L65.1 256 2.8 165.7c-3.1-4.5-3.7-10.2-1.6-15.2s6.6-8.6 11.9-9.6L121 121 140.9 13.1c1-5.3 4.6-9.8 9.6-11.9s10.7-1.5 15.2 1.6L256 65.1 346.3 2.8c4.5-3.1 10.2-3.7 15.2-1.6zM160 256a96 96 0 1 1 192 0 96 96 0 1 1 -192 0zm224 0a128 128 0 1 0 -256 0 128 128 0 1 0 256 0z"/></symbol>
  <symbol id="fa-tasks" viewBox="0 0 512 512"><path d="M152.1 38.2c9.9 8.9 10.7 24 1.8 33.9l-72 80c-4.4 4.9-10.6 7.8-17.2 7.9s-12.9-2.4-17.6-7L7 113C-2.3 103.6-2.3 88.4 7 79s24.6-9.4 33.9 0l22.1 22.1 55.1-61.2c8.9-9.9 24-10.7 33.9-1.8zm0 160c9.9 8.9 10.7 24 1.8 33.9l-72 80c-4.4 4.9-10.6 7.8-17.2 7.9s-12.9-2.4-17.6-7L7 273c-9.4-9.4-9.4-24.6 0-33.9s24.6-9.4 33.9 0l22.1 22.1 55.1-61.2c8.9-9.9 24-10.7 33.9-1.8zM224 96c0-17.7 14.3-32 32-32l224 0c17.7 0 32 14.3 32 32s-14.3 32-32 32l-224 0c-17.7 0-32-14.3-32-32zm0 160c0-17.7 14.3-32 32-32l224 0c17.7 0 32 14.3 32 32s-14.3 32-32 32l-224 0c-17.7 0-32-14.3-32-32zM160 416c0-17.7 14.3-32 32-32l288 0c17.7 0 32 14.3 32 32s-14.3 32-32 32l-288 0c-17.7 0-32-14.3-32-32zM48 368a48 48 0 1 1 0 96 48 48 0 1 1 0-96z"/></symbol>
  <symbol id="fa-thumbs-down" viewBox="0 0 512 512"><path d="M313.4 479.1c26-5.2 42.9-30.5 37.7-56.5l-2.3-11.4c-5.3-26.7-15.1-52.1-28.8-75.2l144 0c26.5 0 48-21.5 48-48c0-18.5-10.5-34.6-25.9-42.6C497 236.6 504 223.1 504 208c0-23.4-16.8-42.9-38.9-47.1c4.4-7.3 6.9-15.8 6.9-24.9c0-21.3-13.9-39.4-33.1-45.6c.7-3.3 1.1-6.8 1.1-10.4c0-26.5-21.5-48-48-48l-97.5 0c-19 0-37.5 5.6-53.3 16.1L202.7 73.8C176 91.6 160 121.6 160 153.7l0 38.3 0 48 0 24.9c0 29.2 13.3 56.7 36 75l7.4 5.9c26.5 21.2 44.6 51 51.2 84.2l2.3 11.4c5.2 26 30.5 42.9 56.5 37.7zM32 384l64 0c17.7 0 32-14.3 32-32l0-224c0-17.7-14.3-32-32-32L32 96C14.3 96 0 110.3 0 128L0 352c0 17.7 14.3 32 32 32z"/></symbol>
  <symbol id="fa-thumbs-up" viewBox="0 0 512 512"><path d="M313.4 32.9c26 5.2 42.9 30.5 37.7 56.5l-2.3 11.4c-5.3 26.7-15.1 52.1-28.8 75.2l144 0c26.5 0 48 21.5 48 48c0 18.5-10.5 34.6-25.9 42.6C497 275.4 504 288.9 504 304c0 23.4-16.8 42.9-38.9 47.1c4.4 7.3 6.9 15.8 6.9 24.9c0 21.3-13.9 39.4-33.1 45.6c.7 3.3 1.1 6.8 1.1 10.4c0 26.5-21.5 48-48 48l-97.5 0c-19 0-37.5-5.6-53.3-16.1l-38.5-25.7C176 420.4 160 390.4 160 358.3l0-38.3 0-48 0-24.9c0-29.2 13.3-56.7 36-75l7.4-5.9c26.5-21.2 44.6-51 51.2-84.2l2.3-11.4c5.2-26 30.5-42.9 56.5-37.7zM32 192l64 0c17.7 0 32 14.3 32 32l0 224c0 17.7-14.3 32-32 32l-64 0c-17.7 0-32-14.3-32-32L0 224c0-17.7 14.3-32 32-32z"/></symbol>
  <symbol id="fa-times" viewBox="0 0 384 512"><path d="M342.6 150.6c12.5-12.5 12.5-32.8 0-45.3s-32.8-12.5-45.3 0L192 210.7 86.6 105.4c-12.5-12.5-32.8-12.5-45.3 0s-12.5 32.8 0 45.3L146.7 256 41.4 361.4c-12.5 12.5-12.5 32.8 0 45.3s32.8 12.5 45.3 0L192 301.3 297.4 406.6c12.5 12.5 32.8 12.5 45.3 0s12.5-32.8 0-45.3L237.3 256 342.6 150.6z"/></symbol>
  <symbol id="fa-times-circle" viewBox="0 0 512 512"><path d="M256 512A256 256 0 1 0 256 0a256 256 0 1 0 0 512zM175 175c9.4-9.4 24.6-9.4 33.9 0l47 47 47-47c9.4-9.4 24.6-9.4 33.9 0s9.4 24.6 0 33.9l-47 47 47 47c9.4 9.4 9.4 24.6 0 33.9s-24.6 9.4-33.9 0l-47-47-47 47c-9.4 9.4-24.6 9.4-33.9 0s-9.4-24.6 0-33.9l47-47-47-47c-9.4-9.4-9.4-24.6 0-33.9z"/></symbol>
  <symbol id="fa-trash-alt" viewBox="0 0 448 512"><path d="M135.2 17.7C140.6 6.8 151.7 0 163.8 0L284.2 0c12.1 0 23.2 6.8 28.6 17.7L320 32l96 0c17.7 0 32 14.3 32 32s-14.3 32-32 32L32 96C14.3 96 0 81.7 0 64S14.3 32 32 32l96 0 7.2-14.3zM32 128l384 0 0 320c0 35.3-28.7 64-64 64L96 512c-35.3 0-64-28.7-64-64l0-320zm96 64c-8.8 0-16 7.2-16 16l0 224c0 8.8 7.2 16 16 16s16-7.2 16-16l0-224c0-8.8-7.2-16-16-16zm96 0c-8.8 0-16 7.2-16 16l0 224c0 8.8 7.2 16 16 16s16-7.2 16-16l0-224c0-8.8-7.2-16-16-16zm96 0c-8.8 0-16 7.2-16 16l0 224c0 8.8 7.2 16 16 16s16-7.2 16-16l0-224c0-8.8-7.2-16-16-16z"/></symbol>
  <symbol id="fa-trash-can" viewBox="0 0 448 512"><path d="M135.2 17.7C140.6 6.8 151.7 0 163.8 0L284.2 0c12.1 0 23.2 6.8 28.6 17.7L320 32l96 0c17.7 0 32 14.3 32 32s-14.3 32-32 32L32 96C14.3 96 0 81.7 0 64S14.3 32 32 32l96 0 7.2-14.3zM32 128l384 0 0 320c0 35.3-28.7 64-64 64L96 512c-35.3 0-64-28.7-64-64l0-320zm96 64c-8.8 0-16 7.2-16 16l0 224c0 8.8 7.2 16 16 16s16-7.2 16-16l0-224c0-8.8-7.2-16-16-16zm96 0c-8.8 0-16 7.2-16 16l0 224c0 8.8 7.2 16 16 16s16-7.2 16-16l0-224c0-8.8-7.2-16-16-16zm96 0c-8.8 0-16 7.2-16 16l0 224c0 8.8 7.2 16 16 16s16-7.2 16-16l0-224c0-8.8-7.2-16-16-16z"/></symbol>
</svg>
